<svg width="83" height="28" viewBox="0 0 83 28" fill="none" xmlns="http://www.w3.org/2000/svg">
<path d="M20.8607 9V5.444L20.7907 4.884H24.0387C24.4167 4.884 24.706 4.93067 24.9067 5.024C25.112 5.11733 25.2543 5.25733 25.3337 5.444C25.413 5.626 25.4527 5.85467 25.4527 6.13V7.747C25.4527 8.027 25.413 8.26033 25.3337 8.447C25.259 8.629 25.119 8.76667 24.9137 8.86C24.713 8.95333 24.4213 9 24.0387 9H20.8607ZM21.7847 8.328H23.9827C24.342 8.328 24.524 8.16233 24.5287 7.831V6.046C24.5287 5.91067 24.489 5.79633 24.4097 5.703C24.3303 5.605 24.188 5.556 23.9827 5.556H21.7847V8.328ZM27.8303 9V4.884H32.1843V5.556H28.7543V6.522H31.3723V7.215H28.7543V8.328H32.2123L32.4923 8.923C32.4923 8.94167 32.4293 8.96033 32.3033 8.979C32.1773 8.993 31.9603 9 31.6523 9H27.8303ZM35.9967 9L35.9897 5.549H34.1697V4.877H38.7477V5.549H36.9207V9H35.9967ZM45.323 9.07C45.1364 9.07 44.952 9.042 44.77 8.986C44.5927 8.92533 44.3897 8.78067 44.161 8.552L43.657 8.048C43.4517 7.838 43.2254 7.684 42.978 7.586C42.7354 7.488 42.4297 7.439 42.061 7.439H41.844V9H40.92V5.444L40.85 4.877H43.951C44.2497 4.877 44.483 4.91667 44.651 4.996C44.8237 5.07533 44.9497 5.18033 45.029 5.311C45.113 5.437 45.1667 5.57233 45.19 5.717C45.2134 5.86167 45.225 5.99933 45.225 6.13V6.263C45.225 6.36567 45.211 6.48 45.183 6.606C45.155 6.732 45.1014 6.85567 45.022 6.977C44.9427 7.09833 44.8284 7.201 44.679 7.285C44.5344 7.369 44.343 7.418 44.105 7.432C44.1657 7.46467 44.2427 7.516 44.336 7.586C44.4294 7.65133 44.525 7.72367 44.623 7.803C44.7257 7.88233 44.819 7.95467 44.903 8.02C44.987 8.08533 45.0524 8.132 45.099 8.16C45.267 8.258 45.4164 8.32567 45.547 8.363C45.6777 8.40033 45.785 8.42133 45.869 8.426C45.953 8.43067 46.002 8.433 46.016 8.433L45.876 9C45.834 9.014 45.764 9.028 45.666 9.042C45.568 9.06067 45.4537 9.07 45.323 9.07ZM42.894 6.802C43.0714 6.802 43.23 6.79967 43.37 6.795C43.51 6.78567 43.636 6.77633 43.748 6.767C43.9534 6.74367 44.0957 6.68767 44.175 6.599C44.259 6.50567 44.301 6.38667 44.301 6.242V6.081C44.301 5.93167 44.2614 5.80567 44.182 5.703C44.1027 5.60033 43.9604 5.549 43.755 5.549H41.844V6.767C42.0494 6.781 42.2384 6.79033 42.411 6.795C42.5837 6.79967 42.7447 6.802 42.894 6.802ZM49.2579 9C48.9312 9 48.6746 8.95333 48.4879 8.86C48.3012 8.76667 48.1682 8.62667 48.0889 8.44C48.0142 8.25333 47.9769 8.02233 47.9769 7.747V6.13C47.9769 5.85933 48.0142 5.633 48.0889 5.451C48.1636 5.26433 48.2942 5.12433 48.4809 5.031C48.6676 4.933 48.9266 4.884 49.2579 4.884H51.3019C51.6286 4.884 51.8829 4.933 52.0649 5.031C52.2516 5.12433 52.3822 5.26433 52.4569 5.451C52.5362 5.633 52.5759 5.85933 52.5759 6.13V7.747C52.5759 8.15767 52.4849 8.47033 52.3029 8.685C52.1209 8.895 51.7872 9 51.3019 9H49.2579ZM49.4609 8.328H51.1059C51.2786 8.328 51.4116 8.28367 51.5049 8.195C51.6029 8.10633 51.6519 7.985 51.6519 7.831V6.046C51.6519 5.91067 51.6029 5.79633 51.5049 5.703C51.4069 5.605 51.2739 5.556 51.1059 5.556H49.4609C49.2929 5.556 49.1576 5.60033 49.0549 5.689C48.9522 5.77767 48.9009 5.89667 48.9009 6.046V7.831C48.9009 7.98967 48.9499 8.11333 49.0479 8.202C49.1506 8.286 49.2882 8.328 49.4609 8.328ZM55.025 9V4.884H55.949V9H55.025ZM59.876 9L59.869 5.549H58.049V4.877H62.627V5.549H60.8V9H59.876Z" fill="black"/>
<rect x="0.5" y="15.5" width="82" height="9" rx="1.5" fill="#113E9F" stroke="#113E9F"/>
<rect x="0.5" y="12.5" width="82" height="1" rx="0.5" fill="#113E9F" stroke="#113E9F"/>
<rect x="0.5" y="26.5" width="82" height="1" rx="0.5" fill="#113E9F" stroke="#113E9F"/>
<path d="M3.20931 22.7451V18.436L3.12449 17.7489H7.05193C7.43081 17.7489 7.73336 17.7913 7.95956 17.8761C8.19142 17.9553 8.3639 18.0656 8.477 18.2069C8.59576 18.3427 8.6721 18.5038 8.70603 18.6904C8.74562 18.8714 8.76541 19.0637 8.76541 19.2673V19.9374C8.76541 20.2088 8.72017 20.4605 8.62969 20.6923C8.54486 20.9185 8.38369 21.1023 8.14618 21.2437C7.91432 21.3794 7.57785 21.4473 7.13675 21.4473H6.55145C6.19518 21.4473 5.86154 21.4388 5.55051 21.4218C5.24513 21.4049 5.0161 21.3907 4.86342 21.3794V22.7451H3.20931ZM4.86342 20.2936H6.61931C6.80593 20.2936 6.936 20.2569 7.00951 20.1834C7.08303 20.1099 7.11979 19.9911 7.11979 19.8271V19.3945C7.11979 19.2305 7.08586 19.1117 7.01799 19.0382C6.95013 18.9591 6.82007 18.9195 6.6278 18.9195H4.86342V20.2936ZM10.2896 22.7451L10.3744 22.0665V17.7574H12.0031V21.583H15.0059L15.5149 22.6518C15.5149 22.6744 15.4386 22.697 15.2859 22.7197C15.1332 22.7366 14.8702 22.7451 14.497 22.7451H10.2896ZM18.13 22.8299C17.5645 22.8299 17.1347 22.697 16.8406 22.4313C16.5522 22.1655 16.408 21.7357 16.408 21.1419V17.7574H18.0621V20.9892C18.0621 21.255 18.1272 21.4331 18.2572 21.5236C18.3873 21.6141 18.5485 21.6593 18.7407 21.6593H19.835C20.0159 21.6593 20.1743 21.6141 20.31 21.5236C20.4457 21.4275 20.5136 21.2494 20.5136 20.9892V17.7574H22.1422V21.1419C22.1422 21.7357 21.998 22.1655 21.7096 22.4313C21.4269 22.697 20.9999 22.8299 20.4288 22.8299H18.13ZM23.7935 22.7451V18.436L23.7087 17.7574H25.7615L27.2544 20.7263L28.7813 17.7574H30.7238V22.7451H29.1036V19.8865H29.0103L28.654 20.8026L28.0348 22.2362H26.491L25.8463 20.8026L25.4985 19.8865H25.4137V22.7451H23.7935ZM32.4229 22.7451V17.7489H36.2909C36.8225 17.7489 37.2099 17.8563 37.453 18.0712C37.6962 18.2804 37.8178 18.5349 37.8178 18.8346V19.0891C37.8178 19.321 37.7669 19.5133 37.6651 19.6659C37.569 19.813 37.4644 19.9176 37.3513 19.9798C37.6001 20.059 37.798 20.1975 37.945 20.3954C38.0921 20.5877 38.1656 20.8422 38.1656 21.1589V21.3116C38.1656 21.4812 38.1458 21.6509 38.1062 21.8205C38.0666 21.9902 37.9903 22.1457 37.8772 22.2871C37.7697 22.4228 37.6142 22.5331 37.4106 22.6179C37.2127 22.7027 36.9526 22.7451 36.6302 22.7451H32.4229ZM34.077 19.6744H35.7735C35.9205 19.6744 36.0223 19.6433 36.0789 19.5811C36.1354 19.5189 36.1637 19.4341 36.1637 19.3266V19.2418C36.1637 19.1231 36.1354 19.0382 36.0789 18.9873C36.0223 18.9364 35.8951 18.911 35.6972 18.911H34.077V19.6744ZM34.077 21.583H36.1213C36.2683 21.583 36.3701 21.5576 36.4267 21.5067C36.4832 21.4501 36.5115 21.3625 36.5115 21.2437V21.091C36.5115 20.9836 36.4747 20.9016 36.4012 20.845C36.3277 20.7828 36.2005 20.7517 36.0195 20.7517H34.077V21.583ZM39.6957 22.7451V17.7574H41.3244V22.7451H39.6957ZM43.102 22.7451V18.436L43.0172 17.7574H44.578L46.97 20.1834L47.3009 20.5566H47.3942V17.7574H49.0228V22.7451H47.6062L45.1463 20.2936L44.8155 19.895H44.7306V22.7451H43.102ZM52.3579 22.7451C51.7528 22.7451 51.3145 22.6122 51.0431 22.3464C50.7716 22.0806 50.6359 21.6509 50.6359 21.0571V19.5048C50.6359 18.894 50.7858 18.4501 51.0855 18.173C51.3852 17.8903 51.8093 17.7489 52.3579 17.7489H55.1911C55.5813 17.7489 55.8782 17.7715 56.0817 17.8167C56.291 17.8563 56.3956 17.8987 56.3956 17.944L56.1326 19.0043C55.9913 18.9873 55.7142 18.9704 55.3013 18.9534C54.8942 18.9308 54.3796 18.9195 53.7575 18.9195H52.9686C52.7028 18.9195 52.5219 18.9704 52.4257 19.0722C52.3353 19.1683 52.29 19.3182 52.29 19.5217V20.9723C52.29 21.1645 52.3296 21.3144 52.4088 21.4218C52.4936 21.5236 52.6802 21.5745 52.9686 21.5745H53.6557C53.9158 21.5745 54.1505 21.5745 54.3598 21.5745C54.569 21.5689 54.7528 21.5632 54.9111 21.5576V20.9129L54.5718 20.9214L53.4606 21.0062V19.8356H56.5313V22.3888L56.6161 22.567C56.6161 22.6122 56.4974 22.6546 56.2599 22.6942C56.0224 22.7282 55.6208 22.7451 55.0553 22.7451H52.3579ZM60.4307 22.7451V18.436L60.3458 17.7489H64.2733C64.6522 17.7489 64.9547 17.7913 65.1809 17.8761C65.4128 17.9553 65.5852 18.0656 65.6983 18.2069C65.8171 18.3427 65.8934 18.5038 65.9274 18.6904C65.967 18.8714 65.9867 19.0637 65.9867 19.2673V19.9374C65.9867 20.2088 65.9415 20.4605 65.851 20.6923C65.7662 20.9185 65.605 21.1023 65.3675 21.2437C65.1357 21.3794 64.7992 21.4473 64.3581 21.4473H63.7728C63.4165 21.4473 63.0829 21.4388 62.7718 21.4218C62.4665 21.4049 62.2374 21.3907 62.0848 21.3794V22.7451H60.4307ZM62.0848 20.2936H63.8406C64.0273 20.2936 64.1573 20.2569 64.2308 20.1834C64.3044 20.1099 64.3411 19.9911 64.3411 19.8271V19.3945C64.3411 19.2305 64.3072 19.1117 64.2393 19.0382C64.1715 18.9591 64.0414 18.9195 63.8491 18.9195H62.0848V20.2936ZM73.0162 22.8299C72.79 22.8299 72.5383 22.796 72.2612 22.7282C71.9841 22.6546 71.7098 22.4793 71.4384 22.2022L71.0821 21.846C70.9125 21.6763 70.7485 21.5378 70.5901 21.4303C70.4375 21.3229 70.2621 21.2437 70.0642 21.1928C69.8663 21.1363 69.6175 21.108 69.3177 21.108H69.2499V22.7451H67.5958V18.436L67.511 17.7489H71.4384C71.8003 17.7489 72.0916 17.7941 72.3121 17.8846C72.5383 17.9694 72.7108 18.0853 72.8295 18.2324C72.954 18.3738 73.0388 18.5349 73.084 18.7159C73.1293 18.8969 73.1519 19.0806 73.1519 19.2673V19.4284C73.1519 19.7677 73.0642 20.0731 72.8889 20.3445C72.7193 20.6103 72.4478 20.7998 72.0746 20.9129C72.216 20.9977 72.3489 21.0854 72.4733 21.1758C72.6033 21.2607 72.7504 21.3511 72.9144 21.4473C73.101 21.5547 73.2735 21.6339 73.4318 21.6848C73.5958 21.73 73.7315 21.7583 73.839 21.7696C73.9464 21.7809 74.0086 21.7866 74.0256 21.7866L73.7711 22.7451C73.7032 22.7621 73.5986 22.779 73.4573 22.796C73.3215 22.8186 73.1745 22.8299 73.0162 22.8299ZM70.2339 19.9798C70.3752 19.9798 70.511 19.977 70.641 19.9713C70.7768 19.9657 70.8983 19.9572 71.0058 19.9459C71.1981 19.9232 71.3281 19.8639 71.396 19.7677C71.4695 19.6659 71.5063 19.5444 71.5063 19.403V19.3097C71.5063 19.1853 71.4695 19.0891 71.396 19.0213C71.3281 18.9534 71.2009 18.9195 71.0143 18.9195H69.2499V19.9459C69.3913 19.9515 69.5468 19.96 69.7164 19.9713C69.8861 19.977 70.0586 19.9798 70.2339 19.9798ZM76.7688 22.7451C76.1694 22.7451 75.7311 22.6122 75.454 22.3464C75.1826 22.075 75.0469 21.6452 75.0469 21.0571V19.4369C75.0469 18.8601 75.1826 18.436 75.454 18.1645C75.7255 17.8931 76.1637 17.7574 76.7688 17.7574H79.2458C79.8395 17.7574 80.2721 17.8931 80.5436 18.1645C80.8207 18.436 80.9592 18.8601 80.9592 19.4369V21.0571C80.9592 21.6452 80.8207 22.075 80.5436 22.3464C80.2665 22.6122 79.8339 22.7451 79.2458 22.7451H76.7688ZM77.3541 21.5915H78.6689C79.11 21.5915 79.3306 21.3907 79.3306 20.9892V19.5048C79.3306 19.1089 79.11 18.911 78.6689 18.911H77.3541C77.1279 18.911 76.9583 18.9562 76.8452 19.0467C76.7321 19.1372 76.6755 19.2899 76.6755 19.5048V20.9892C76.6755 21.1985 76.7321 21.3511 76.8452 21.4473C76.9583 21.5434 77.1279 21.5915 77.3541 21.5915Z" fill="white"/>
</svg>
