<svg width="178" height="41" viewBox="0 0 178 41" fill="none" xmlns="http://www.w3.org/2000/svg">
<path d="M6.83457 19.23C4.63423 19.23 3.03957 18.6703 2.05057 17.551C1.06923 16.4317 0.578566 14.8715 0.578566 12.8705V11.9275H5.27057V12.8705C5.27057 13.4762 5.4009 13.9477 5.66157 14.285C5.92223 14.6147 6.3094 14.7795 6.82307 14.7795C7.3444 14.7795 7.73157 14.6147 7.98457 14.285C8.24523 13.9553 8.37557 13.4838 8.37557 12.8705V5.2575H6.00657V1.405H14.8156V5.2575H13.0791V12.8935C13.0791 14.1738 12.8567 15.2893 12.4121 16.24C11.9751 17.183 11.2966 17.919 10.3766 18.448C9.45657 18.9693 8.2759 19.23 6.83457 19.23ZM25.2944 9.731H23.6959V6.005H29.8944V15.274H31.4699V19H25.2944V9.731ZM21.3959 6.005V13.687C21.3959 14.2697 21.5377 14.7373 21.8214 15.09C22.1051 15.435 22.5037 15.6075 23.0174 15.6075C23.4161 15.6075 23.7879 15.4925 24.1329 15.2625C24.4779 15.0248 24.7577 14.6568 24.9724 14.1585C25.1871 13.6602 25.2944 13.02 25.2944 12.238L25.9729 15.2165H25.1449C24.9532 16.5735 24.5009 17.597 23.7879 18.287C23.0749 18.9693 22.0897 19.3105 20.8324 19.3105C19.4754 19.3105 18.4634 18.9425 17.7964 18.2065C17.1294 17.4628 16.7959 16.4355 16.7959 15.1245V9.7425H15.3009V6.005H21.3959ZM38.8051 15.274H40.1736V19H32.5721V15.274H34.2051V9.731H32.5721V6.005H38.8051V15.274ZM42.7496 15.274V11.3295C42.7496 10.7392 42.6078 10.2715 42.3241 9.9265C42.0404 9.5815 41.6379 9.409 41.1166 9.409C40.6643 9.409 40.2618 9.547 39.9091 9.823C39.5641 10.0913 39.2919 10.4747 39.0926 10.973C38.9009 11.4713 38.8051 12.0693 38.8051 12.767L38.1266 9.9495H38.9546C39.0849 9.01417 39.3418 8.23217 39.7251 7.6035C40.1161 6.97483 40.6183 6.50333 41.2316 6.189C41.8449 5.87467 42.5618 5.7175 43.3821 5.7175C44.6701 5.7175 45.6514 6.0855 46.3261 6.8215C47.0084 7.54983 47.3496 8.59633 47.3496 9.961V15.274H48.8561V19H41.4041V15.274H42.7496ZM55.8821 15.274H57.0781V19H49.6721V15.274H51.2821V4.556H49.6721V0.83H55.8821V15.274ZM61.5861 10.835L64.9441 15.274H66.1401V19H58.4121V15.274H59.7231L57.6301 12.445L61.5861 10.835ZM54.2951 15.803L52.9151 13.572L59.1941 9.731H57.3081V6.005H65.9561V9.731H64.5301L54.2951 15.803ZM75.8412 6.005H82.5457V9.731H81.5567L77.3132 19.8395C76.6922 21.2808 75.8412 22.3043 74.7602 22.91C73.6792 23.5233 72.3452 23.83 70.7582 23.83H67.8027V20.1385H70.7582C71.3869 20.1385 71.9082 20.0197 72.3222 19.782C72.7439 19.5443 73.0505 19.1955 73.2422 18.7355L75.0017 17.804L72.6097 20.4605L67.9867 9.731H66.9287V6.005H74.5992V9.731H73.0927L76.2437 17.804L73.5757 15.228H76.3357L74.4727 17.551L77.4397 9.731H75.8412V6.005ZM101.005 8.949C101.787 9.12533 102.412 9.4205 102.88 9.8345C103.355 10.2485 103.673 10.6625 103.834 11.0765L105.444 15.1475H106.686V19H101.546L99.6022 12.8015C99.4872 12.4488 99.3492 12.2073 99.1882 12.077C99.0349 11.939 98.801 11.87 98.4867 11.87H96.7962L101.005 8.949ZM96.1177 5.2575V1.405H99.2227C101.561 1.405 103.317 1.83817 104.49 2.7045C105.663 3.56317 106.249 4.75917 106.249 6.2925C106.249 6.97483 106.134 7.57667 105.904 8.098C105.674 8.61167 105.348 9.0525 104.927 9.4205C104.505 9.7885 104.014 10.0913 103.455 10.329V10.72L99.8322 11.87H94.5767V8.5005H99.1077C99.606 8.5005 100.024 8.43917 100.361 8.3165C100.706 8.19383 100.967 8.00983 101.143 7.7645C101.32 7.51917 101.408 7.2125 101.408 6.8445C101.408 6.2925 101.197 5.89 100.775 5.637C100.361 5.384 99.813 5.2575 99.1307 5.2575H96.1177ZM89.5742 5.2575V1.405H97.7277V5.2575H96.0027V15.1475H97.7852V19H89.5742V15.1475H91.3107V5.2575H89.5742ZM118.493 19C117.91 19 117.458 18.8352 117.136 18.5055C116.821 18.1682 116.664 17.6928 116.664 17.0795V14.607L116.952 14.147L116.791 12.813L116.664 12.1345V11.042C116.664 10.6587 116.584 10.352 116.423 10.122C116.262 9.88433 116.036 9.71183 115.744 9.6045C115.461 9.4895 115.135 9.432 114.767 9.432C114.238 9.432 113.789 9.54317 113.421 9.7655C113.053 9.98017 112.812 10.3443 112.697 10.858L108.534 10.2945C108.664 9.35917 108.978 8.5465 109.477 7.8565C109.975 7.15883 110.692 6.62217 111.627 6.2465C112.57 5.87083 113.774 5.683 115.238 5.683C116.48 5.683 117.55 5.83633 118.447 6.143C119.351 6.44967 120.045 6.94417 120.528 7.6265C121.019 8.30883 121.264 9.2135 121.264 10.3405V15.2625H122.621V19H118.493ZM112.156 19.276C110.799 19.276 109.78 18.9617 109.097 18.333C108.415 17.6967 108.074 16.8303 108.074 15.734C108.074 14.5687 108.461 13.6947 109.235 13.112C110.017 12.5293 111.186 12.1115 112.743 11.8585L117.308 11.0765V12.8935L114.33 13.4685C113.824 13.5528 113.456 13.7062 113.226 13.9285C112.996 14.1508 112.881 14.4345 112.881 14.7795C112.881 15.1552 113.003 15.4388 113.249 15.6305C113.494 15.8222 113.828 15.918 114.249 15.918C114.709 15.918 115.131 15.8068 115.514 15.5845C115.898 15.3545 116.204 15.0095 116.434 14.5495C116.672 14.0895 116.791 13.5107 116.791 12.813L117.343 15.5155H116.561C116.392 16.7958 115.924 17.7427 115.158 18.356C114.391 18.9693 113.391 19.276 112.156 19.276ZM124.559 19.3335V4.556H122.949V0.83H129.159V11.0075L129.09 11.893V13.6755L129.159 15.895L124.743 19.3335H124.559ZM132.034 19.2645C131.137 19.2645 130.293 19.1418 129.504 18.8965C128.714 18.6435 128.005 18.2602 127.376 17.7465C126.755 17.2328 126.253 16.5773 125.87 15.78L129.09 12.5025C129.09 13.0698 129.189 13.5643 129.389 13.986C129.596 14.4077 129.891 14.7373 130.274 14.975C130.657 15.205 131.117 15.32 131.654 15.32C132.206 15.32 132.674 15.205 133.057 14.975C133.44 14.745 133.732 14.4192 133.931 13.9975C134.13 13.5758 134.23 13.0775 134.23 12.5025C134.23 11.9352 134.123 11.4407 133.908 11.019C133.701 10.5973 133.402 10.2715 133.011 10.0415C132.628 9.8115 132.175 9.6965 131.654 9.6965C131.125 9.6965 130.669 9.8115 130.286 10.0415C129.902 10.2715 129.607 10.5973 129.4 11.019C129.193 11.4407 129.09 11.9352 129.09 12.5025L128.768 9.777H129.308C129.454 8.88 129.691 8.1325 130.021 7.5345C130.358 6.9365 130.799 6.488 131.344 6.189C131.888 5.89 132.547 5.7405 133.322 5.7405C134.219 5.7405 135.016 5.9245 135.714 6.2925C136.419 6.6605 137.013 7.16267 137.496 7.799C137.979 8.42767 138.347 9.14833 138.6 9.961C138.853 10.766 138.98 11.617 138.98 12.514C138.98 13.9247 138.684 15.136 138.094 16.148C137.511 17.1523 136.699 17.9228 135.656 18.4595C134.621 18.9962 133.414 19.2645 132.034 19.2645ZM141.247 19.3335V4.556H139.637V0.83H145.847V11.0075L145.778 11.893V13.6755L145.847 15.895L141.431 19.3335H141.247ZM148.722 19.2645C147.825 19.2645 146.982 19.1418 146.192 18.8965C145.402 18.6435 144.693 18.2602 144.065 17.7465C143.444 17.2328 142.941 16.5773 142.558 15.78L145.778 12.5025C145.778 13.0698 145.878 13.5643 146.077 13.986C146.284 14.4077 146.579 14.7373 146.963 14.975C147.346 15.205 147.806 15.32 148.343 15.32C148.895 15.32 149.362 15.205 149.746 14.975C150.129 14.745 150.42 14.4192 150.62 13.9975C150.819 13.5758 150.919 13.0775 150.919 12.5025C150.919 11.9352 150.811 11.4407 150.597 11.019C150.39 10.5973 150.091 10.2715 149.7 10.0415C149.316 9.8115 148.864 9.6965 148.343 9.6965C147.814 9.6965 147.357 9.8115 146.974 10.0415C146.591 10.2715 146.296 10.5973 146.089 11.019C145.882 11.4407 145.778 11.9352 145.778 12.5025L145.456 9.777H145.997C146.142 8.88 146.38 8.1325 146.71 7.5345C147.047 6.9365 147.488 6.488 148.032 6.189C148.576 5.89 149.236 5.7405 150.01 5.7405C150.907 5.7405 151.704 5.9245 152.402 6.2925C153.107 6.6605 153.702 7.16267 154.185 7.799C154.668 8.42767 155.036 9.14833 155.289 9.961C155.542 10.766 155.668 11.617 155.668 12.514C155.668 13.9247 155.373 15.136 154.783 16.148C154.2 17.1523 153.387 17.9228 152.345 18.4595C151.31 18.9962 150.102 19.2645 148.722 19.2645ZM163.421 15.274H164.882V19H157.188V15.274H158.821V9.731H157.188V6.005H163.421V15.274ZM158.557 0.910499H163.502V4.6365H158.557V0.910499ZM171.794 14.1355C171.794 14.4805 171.851 14.7373 171.966 14.906C172.081 15.067 172.246 15.1475 172.461 15.1475C172.691 15.1475 172.863 15.0632 172.978 14.8945C173.093 14.7258 173.151 14.4728 173.151 14.1355V12.951H177.026V14.1125C177.026 15.1475 176.854 16.0483 176.509 16.815C176.164 17.5817 175.627 18.1758 174.899 18.5975C174.17 19.0192 173.227 19.23 172.07 19.23C170.935 19.23 170.007 19.0192 169.287 18.5975C168.574 18.1682 168.045 17.574 167.7 16.815C167.362 16.0483 167.194 15.1552 167.194 14.1355V9.7425H165.273V6.005H167.194V2.4975H171.794V6.005H176.969L176.946 9.7425H171.794V14.1355ZM51.3344 26.2575V22.405H59.5339V26.2575H57.7629V36.1475H64.1454V40H51.3344V36.1475H53.0709V26.2575H51.3344ZM67.1929 32.571V40H62.5009V32.571H67.1929ZM78.5909 40C78.0082 40 77.5559 39.8352 77.2339 39.5055C76.9196 39.1682 76.7624 38.6928 76.7624 38.0795V35.607L77.0499 35.147L76.8889 33.813L76.7624 33.1345V32.042C76.7624 31.6587 76.6819 31.352 76.5209 31.122C76.3599 30.8843 76.1337 30.7118 75.8424 30.6045C75.5587 30.4895 75.2329 30.432 74.8649 30.432C74.3359 30.432 73.8874 30.5432 73.5194 30.7655C73.1514 30.9802 72.9099 31.3443 72.7949 31.858L68.6319 31.2945C68.7622 30.3592 69.0765 29.5465 69.5749 28.8565C70.0732 28.1588 70.79 27.6222 71.7254 27.2465C72.6684 26.8708 73.872 26.683 75.3364 26.683C76.5784 26.683 77.6479 26.8363 78.5449 27.143C79.4496 27.4497 80.1434 27.9442 80.6264 28.6265C81.117 29.3088 81.3624 30.2135 81.3624 31.3405V36.2625H82.7194V40H78.5909ZM72.2544 40.276C70.8974 40.276 69.8777 39.9617 69.1954 39.333C68.513 38.6967 68.1719 37.8303 68.1719 36.734C68.1719 35.5687 68.559 34.6947 69.3334 34.112C70.1154 33.5293 71.2845 33.1115 72.8409 32.8585L77.4064 32.0765V33.8935L74.4279 34.4685C73.9219 34.5528 73.5539 34.7062 73.3239 34.9285C73.0939 35.1508 72.9789 35.4345 72.9789 35.7795C72.9789 36.1552 73.1015 36.4388 73.3469 36.6305C73.5922 36.8222 73.9257 36.918 74.3474 36.918C74.8074 36.918 75.229 36.8068 75.6124 36.5845C75.9957 36.3545 76.3024 36.0095 76.5324 35.5495C76.77 35.0895 76.8889 34.5107 76.8889 33.813L77.4409 36.5155H76.6589C76.4902 37.7958 76.0225 38.7427 75.2559 39.356C74.4892 39.9693 73.4887 40.276 72.2544 40.276ZM84.6568 40.3335V25.556H83.0468V21.83H89.2568V32.0075L89.1878 32.893V34.6755L89.2568 36.895L84.8408 40.3335H84.6568ZM92.1318 40.2645C91.2348 40.2645 90.3914 40.1418 89.6018 39.8965C88.8121 39.6435 88.1029 39.2602 87.4743 38.7465C86.8533 38.2328 86.3511 37.5773 85.9678 36.78L89.1878 33.5025C89.1878 34.0698 89.2874 34.5643 89.4868 34.986C89.6938 35.4077 89.9889 35.7373 90.3723 35.975C90.7556 36.205 91.2156 36.32 91.7523 36.32C92.3043 36.32 92.7719 36.205 93.1553 35.975C93.5386 35.745 93.8299 35.4192 94.0293 34.9975C94.2286 34.5758 94.3283 34.0775 94.3283 33.5025C94.3283 32.9352 94.2209 32.4407 94.0063 32.019C93.7993 31.5973 93.5003 31.2715 93.1093 31.0415C92.7259 30.8115 92.2736 30.6965 91.7523 30.6965C91.2233 30.6965 90.7671 30.8115 90.3838 31.0415C90.0004 31.2715 89.7053 31.5973 89.4983 32.019C89.2913 32.4407 89.1878 32.9352 89.1878 33.5025L88.8658 30.777H89.4063C89.5519 29.88 89.7896 29.1325 90.1193 28.5345C90.4566 27.9365 90.8974 27.488 91.4418 27.189C91.9861 26.89 92.6454 26.7405 93.4198 26.7405C94.3168 26.7405 95.1141 26.9245 95.8118 27.2925C96.5171 27.6605 97.1113 28.1627 97.5943 28.799C98.0773 29.4277 98.4453 30.1483 98.6983 30.961C98.9513 31.766 99.0778 32.617 99.0778 33.514C99.0778 34.9247 98.7826 36.136 98.1923 37.148C97.6096 38.1523 96.7969 38.9228 95.7543 39.4595C94.7193 39.9962 93.5118 40.2645 92.1318 40.2645ZM107.808 40.2875C106.313 40.2875 105.01 40.0038 103.898 39.4365C102.794 38.8692 101.939 38.0795 101.334 37.0675C100.728 36.0478 100.425 34.8672 100.425 33.5255C100.425 32.1762 100.728 30.9917 101.334 29.972C101.939 28.9447 102.794 28.1473 103.898 27.58C105.01 27.005 106.313 26.7175 107.808 26.7175C109.311 26.7175 110.614 27.005 111.718 27.58C112.822 28.1473 113.677 28.9447 114.283 29.972C114.896 30.9917 115.203 32.1762 115.203 33.5255C115.203 34.8672 114.9 36.0478 114.294 37.0675C113.689 38.0795 112.83 38.8692 111.718 39.4365C110.614 40.0038 109.311 40.2875 107.808 40.2875ZM107.808 36.297C108.337 36.297 108.797 36.182 109.188 35.952C109.587 35.7143 109.894 35.3885 110.108 34.9745C110.331 34.5605 110.442 34.0775 110.442 33.5255C110.442 32.9658 110.331 32.4752 110.108 32.0535C109.894 31.6318 109.587 31.306 109.188 31.076C108.797 30.8383 108.337 30.7195 107.808 30.7195C107.279 30.7195 106.815 30.8383 106.417 31.076C106.026 31.306 105.719 31.6318 105.497 32.0535C105.282 32.4752 105.175 32.9658 105.175 33.5255C105.175 34.0775 105.282 34.5605 105.497 34.9745C105.719 35.3885 106.026 35.7143 106.417 35.952C106.815 36.182 107.279 36.297 107.808 36.297ZM122.775 36.274H124.247V40H116.542V36.274H118.175V30.731H116.542V27.005H122.775V36.274ZM127.042 31.2485C126.919 31.2178 126.789 31.1948 126.651 31.1795C126.52 31.1642 126.359 31.1565 126.168 31.1565C125.064 31.1565 124.22 31.421 123.638 31.95C123.063 32.4713 122.775 33.2342 122.775 34.2385L122.097 30.823H122.925C123.001 29.926 123.178 29.1823 123.454 28.592C123.737 28.0017 124.121 27.557 124.604 27.258C125.094 26.959 125.696 26.8095 126.409 26.8095C126.524 26.8095 126.632 26.8172 126.731 26.8325C126.839 26.8402 126.942 26.8555 127.042 26.8785V31.2485Z" fill="white"/>
</svg>
