<svg width="1333" height="780" viewBox="0 0 1333 780" fill="none" xmlns="http://www.w3.org/2000/svg">
<g clip-path="url(#clip0_1_52)">
<path fill-rule="evenodd" clip-rule="evenodd" d="M654.071 -337.253L613.995 -438.753H583.115V-464.598H636.684L665.579 -386.708L736.304 -577.845H769.432L678.506 -337.253H654.071ZM342.24 654.413V182.124C343.405 182.201 344.579 182.283 345.761 182.368C351.921 182.816 357.779 183.243 363.368 183.664V650.195C356.373 652.047 349.295 653.456 342.24 654.413ZM308.787 655.615V185.103C314.141 183.564 319.397 182.303 324.507 181.272C325.72 181.307 326.935 181.348 328.155 181.393V655.729C321.569 656.077 315.081 656.043 308.787 655.615ZM278.855 650.111V620.203C280.134 619.909 281.405 619.633 282.651 619.364L282.661 619.361C287.413 618.333 291.777 617.388 294.7 615.808V653.959C289.808 653.127 285.084 652.059 280.615 650.719C280.015 650.539 279.431 650.329 278.855 650.111ZM264.768 638.931C262.653 636.144 260.859 633.14 259.353 630.156C260.767 628.153 262.627 626.557 264.768 625.251V638.931ZM197.861 543.315C128.923 468.795 149.415 275.707 263.008 205.257C263.37 205.033 263.733 204.817 264.096 204.601C264.32 204.467 264.544 204.334 264.768 204.199V587.651C243.389 577.044 216.353 563.304 197.861 543.315ZM294.7 604.588C291.305 601.536 285.753 598.307 278.855 594.723V196.531C284.16 193.952 289.455 191.704 294.7 189.743V604.588ZM396.821 186.553V637.269C390.6 640.557 384.104 643.383 377.455 645.791V184.768C384.347 185.335 390.791 185.917 396.821 186.553ZM646.844 657.761C635.741 639.52 616.007 634.176 611.629 633.111C603.714 631.184 598.925 631.789 593.95 632.418C588.557 633.1 582.945 633.809 572.893 631.351C564.676 629.34 552.783 626.252 544.723 615.504C541.624 611.372 536.017 603.895 537.679 596.136C539.485 587.704 548.769 584.091 558.421 580.334C568.42 576.442 578.813 572.397 581.697 562.683C584.064 554.709 580.82 544.775 574.653 539.793C567.433 533.96 557.385 535.872 555.287 536.272C540.88 539.014 533.241 551.061 526.393 561.861C520.346 571.398 514.916 579.962 505.987 580.289C493.836 580.735 483.422 565.566 478.326 558.145C478.149 557.887 477.979 557.638 477.815 557.4C471.071 547.609 468.615 537.762 467.007 531.311C465.89 526.833 465.181 523.992 463.729 523.947C461.52 523.878 460.592 530.388 459.219 540.009C457.439 552.485 454.914 570.191 447.883 585.572C439.709 603.451 426.627 617.749 410.908 628.687V188.252C435.281 191.625 452.384 196.708 467.251 207.019C471.089 209.68 474.759 212.333 478.243 214.85C493.183 225.646 504.692 233.963 511.268 229.908C517.72 225.929 515.503 215.444 514.789 212.301C511.796 199.109 507.544 192.084 503.952 186.15C500.602 180.617 497.827 176.033 497.183 168.283C496.182 156.256 502.337 147.75 507.805 140.194C513.009 133.002 517.591 126.671 514.789 118.983C512.243 111.991 506.135 104.163 498.944 104.897C492.431 105.563 488.199 110.863 484.688 115.259C484.142 115.942 483.614 116.604 483.097 117.223C474.459 127.566 460.319 132.334 432.038 141.871L432.036 141.872C428.536 143.053 421.601 144.861 410.908 147.037V130.355C412.975 129.333 414.821 127.796 416.111 125.684C419.735 119.744 417.625 111.803 413.095 108.597C405.785 103.424 391.648 110.207 390.983 118.648C390.685 122.42 393.073 126.633 396.821 129.256V149.703C391.072 150.723 384.619 151.789 377.455 152.885V107.465C379.521 106.444 381.368 104.907 382.657 102.795C386.28 96.8546 384.172 88.9133 379.641 85.7079C372.332 80.5347 358.193 87.3173 357.528 95.7586C357.232 99.5306 359.62 103.744 363.368 106.368V154.947C356.607 155.892 349.645 156.789 342.24 157.56V91.6187C344.308 90.5973 346.155 89.0599 347.443 86.9479C351.067 81.0079 348.957 73.0666 344.427 69.8613C337.117 64.688 322.98 71.4719 322.315 79.9119C322.017 83.684 324.405 87.8973 328.155 90.5213V158.804C322.084 159.24 315.675 159.577 308.787 159.771V107.465C310.855 106.444 312.701 104.907 313.989 102.795C317.612 96.8546 315.504 88.9133 310.973 85.7079C303.664 80.5347 289.527 87.3173 288.861 95.7586C288.564 99.5306 290.952 103.744 294.7 106.368V159.96C289.676 159.957 284.393 159.876 278.855 159.716V133.876C280.921 132.855 282.768 131.317 284.057 129.205C287.68 123.265 285.572 115.324 281.041 112.119C273.732 106.945 259.593 113.728 258.928 122.169C258.632 125.941 261.02 130.155 264.768 132.777V159.197C228.265 157.723 209.324 156.583 196.101 147.155C190.1 142.876 183.664 136.9 176.904 130.624C164.236 118.863 150.434 106.048 136.236 101.376C133.412 100.447 128.456 99.2133 123.911 101.376C116.239 105.027 114.485 115.759 115.108 122.504C115.631 128.178 117.865 131.348 120.25 134.733C122.263 137.589 124.383 140.598 125.672 145.393C128.337 155.307 126.834 164.009 123.911 171.804C120.138 181.866 113.204 189.518 107.719 195.571L107.713 195.578C107.428 195.892 107.147 196.203 106.87 196.509C105.157 198.405 103.501 200.186 101.941 201.865L101.936 201.87C93.9792 210.432 88.4969 216.331 90.4579 221.104C92.9448 227.156 105.119 226.457 106.304 226.387C117.234 225.738 124.457 218.862 131.385 212.267C135.767 208.096 140.031 204.037 145.04 201.736C170.041 190.253 191.556 187.885 218.989 185.889C221.869 185.681 224.657 185.479 227.399 185.279C147.369 224.068 119.764 310.229 113.347 330.268C80.0921 434.114 124.334 526.111 152.083 583.811C189.923 662.495 250.749 732.532 266.529 724.668C273.759 721.065 273.584 700.084 271.267 684.129C295.653 695.529 327.351 706.135 359.847 705.301C361.388 705.262 363.037 705.225 364.786 705.186C393.989 704.539 451.063 703.274 497.183 677.129L497.693 676.839C503.335 673.629 519.852 664.232 542.961 661.283C556.493 659.556 581.253 656.397 594.021 670.085C601.142 677.72 601.634 687.486 602.083 696.404C602.531 705.313 602.937 713.377 609.868 717.625C619.169 723.327 631.986 717.095 634.424 715.91L634.519 715.864C651.784 707.485 653.681 686.871 653.887 684.172C654.864 671.236 649.192 661.619 646.844 657.761ZM578.881 81.5266C583.032 80.1873 586.426 81.3342 590.876 82.8384C591.73 83.1268 592.622 83.4283 593.565 83.7279C606.597 87.8679 632.48 94.7426 655.24 83.7279C655.632 83.5381 656.112 83.2589 656.668 82.9357C659.183 81.4738 663.245 79.1117 667.723 80.0573C670.339 80.6106 673.869 82.4079 674.331 85.1973C674.612 86.9066 673.695 88.7079 671.393 91.0706C661.328 101.405 649.367 99.8812 649.367 99.8812C641.934 99.0557 639.08 98.4528 636.736 97.9578L636.735 97.9574C634.912 97.5723 633.398 97.2525 630.277 96.9439C628.144 96.7333 615.651 95.6239 606.047 99.8812C585.688 108.909 578.441 142.005 584.755 165.963C586.379 172.127 589.551 183.508 600.173 191.66C602.36 193.338 617.495 204.952 633.948 198.268C642.9 194.632 650.183 186.415 652.304 176.241C652.341 176.061 652.382 175.871 652.424 175.672C653.358 171.266 655.265 162.27 649.367 155.683L649.361 155.676C648.872 155.131 642.294 147.793 633.213 149.809C627.78 151.015 621.82 155.132 622.2 158.62C622.346 159.961 623.376 160.752 624.565 161.665C625.862 162.662 627.348 163.803 628.075 165.963C629.232 169.404 627.677 172.628 627.34 173.305L627.338 173.308C626.958 174.069 625.231 177.524 621.467 178.444C616.987 179.539 613.311 176.143 612.655 175.507C609.623 172.567 609.316 168.693 608.984 164.493C608.744 161.452 608.443 157.633 610.453 153.48C612.164 149.944 614.665 148 617.059 146.139L617.06 146.139C618.84 144.755 622.216 142.188 627.34 140.999C632.397 139.825 636.481 140.615 638.353 140.999C646.979 142.763 655.331 149.124 659.645 157.152C667.499 171.76 660.76 189.6 652.304 199.736C650.823 201.512 640.381 213.649 623.668 215.156C598.639 217.411 576.471 194.293 568.601 172.571C568.139 171.292 557.944 141.888 572.273 119.705C574.841 115.73 578.386 111.693 581.273 108.406C584.463 104.773 586.849 102.056 586.223 101.351C585.922 101.012 585.119 101.35 583.805 101.903C581.844 102.729 578.744 104.034 574.476 104.287L574.471 104.287C571.293 104.475 567.883 104.676 566.399 102.819C563.128 98.7226 569.231 84.6386 578.881 81.5266ZM626.605 112.363C631.759 113.021 635.739 117.825 635.416 121.908C634.931 128.075 624.603 133.029 619.264 129.251C615.955 126.909 614.413 121.108 617.06 116.769C619.127 113.384 623.113 111.917 626.605 112.363ZM710.675 192.681C711.383 192.896 712.051 193.205 712.653 193.632C715.961 195.973 717.503 201.775 714.855 206.113C712.789 209.5 708.803 210.965 705.311 210.519C700.157 209.861 696.177 205.057 696.5 200.973C696.579 199.971 696.923 199 697.459 198.093V154.581H682.775V197.627C683.571 199.016 683.987 200.52 683.875 201.94C683.389 208.105 673.063 213.06 667.723 209.281C664.413 206.94 662.872 201.139 665.52 196.8C666.512 195.175 667.948 193.996 669.557 193.255V119.877C668.903 119.665 668.284 119.369 667.723 118.972C664.413 116.629 662.872 110.829 665.52 106.489C667.585 103.104 671.572 101.639 675.065 102.084C680.217 102.741 684.197 107.545 683.875 111.629C683.789 112.719 683.392 113.768 682.775 114.74V147.24H697.459V114.724C696.755 113.407 696.395 111.999 696.5 110.664C696.985 104.499 707.313 99.5439 712.653 103.323C715.961 105.664 717.503 111.465 714.855 115.804C713.835 117.477 712.343 118.68 710.675 119.416V192.681ZM734.169 127.416C734.5 126.918 734.841 126.361 735.204 125.767C737.365 122.229 740.31 117.407 746.652 116.401C747.536 116.261 754.805 115.205 758.4 119.339C759.671 120.801 760.055 122.42 760.409 123.916C760.815 125.631 761.183 127.184 762.805 128.149C764.576 129.204 768.679 128.149 768.679 128.149V107.591C768.679 107.591 765.529 104.161 762.805 104.655C760.716 105.032 759.5 106.955 759.133 107.591C754.915 105.963 749.463 104.749 743.715 106.123C725.509 110.473 718.296 137.445 717.283 153.113C716.72 161.816 715.159 186.692 732.701 199.369C732.984 199.574 733.26 199.775 733.531 199.974L734.042 200.35C738.131 203.362 741.189 205.615 748.536 205.657C751.309 205.673 752.928 204.75 753.858 204.219C754.273 203.983 754.55 203.824 754.732 203.863C755.612 204.048 756.559 204.577 757.521 205.113C758.555 205.69 759.605 206.276 760.605 206.453C763.797 207.021 766.476 205.977 766.476 205.977L767.211 174.405C767.211 174.405 759.543 173.68 757.665 176.609C756.776 177.994 756.839 179.511 756.931 181.747V181.748C757.011 183.696 757.186 185.1 757.344 186.378V186.379C757.514 187.747 757.666 188.97 757.665 190.559C757.665 191.12 752.991 194.583 750.323 194.964C747.753 195.332 742.524 195.105 737.107 189.825C728.034 180.98 728.541 167.821 728.879 159.042C728.899 158.516 728.919 158.005 728.936 157.512C731.349 156.308 736.637 154.1 742.247 154.581C744.75 154.797 746.393 155.651 747.852 156.41C749.548 157.293 750.996 158.046 753.26 157.519C756.561 156.751 760.184 153.587 759.868 150.176C759.581 147.092 756.167 144.823 753.26 144.303C750.915 143.883 749.473 144.704 747.686 145.722C746.285 146.519 744.672 147.437 742.247 147.973C736.845 149.167 731.705 148.413 728.939 147.797C728.913 141.771 729.476 134.473 734.169 127.416ZM624.095 309.001C623.157 310.536 622.277 311.978 621.421 313.264C609.269 331.537 607.812 350.429 607.879 366.03C615.041 367.624 628.347 369.578 642.331 366.486C648.611 365.099 652.786 362.721 656.413 360.656C661.039 358.022 664.772 355.896 670.843 356.982C678.367 358.331 687.208 364.205 687.949 372.189C688.769 381.017 679.389 389.208 670.843 391.197C664.982 392.562 661.233 390.612 656.844 388.329C653.065 386.363 648.813 384.151 642.331 383.594C627.809 382.348 614.119 388.062 607.872 391.181C607.848 391.881 607.822 392.595 607.794 393.322L607.727 395.08L607.725 395.129C606.848 417.854 605.532 451.933 629.025 474.833C643.047 488.503 656.587 489.089 663.239 488.138C670.147 487.152 682.247 478.188 682.248 476.735C682.249 472.622 681.857 469.457 681.417 465.916C681.006 462.607 680.555 458.969 680.347 453.924C680.107 448.137 679.944 444.208 682.248 440.618C687.109 433.039 706.959 434.917 706.959 434.917L705.057 516.651C705.057 516.651 698.123 519.352 689.857 517.884C687.27 517.424 684.552 515.907 681.875 514.414C679.386 513.025 676.932 511.656 674.653 511.176C674.183 511.077 673.465 511.487 672.391 512.099C669.985 513.472 665.795 515.863 658.613 515.821C639.596 515.713 631.679 509.882 621.096 502.087L621.075 502.072L621.067 502.066C620.483 501.636 619.89 501.2 619.287 500.758C618.741 500.357 618.186 499.953 617.62 499.544C572.203 466.723 576.245 402.325 577.703 379.793C580.327 339.232 599.001 269.406 646.132 258.141C661.013 254.584 675.127 257.726 686.049 261.942C687 260.296 690.145 255.318 695.553 254.339C702.608 253.063 710.76 261.942 710.76 261.942V315.165C710.76 315.165 700.139 317.896 695.553 315.165C691.355 312.665 690.402 308.646 689.35 304.206C688.432 300.334 687.438 296.141 684.148 292.356C674.845 281.654 656.025 284.389 653.736 284.752C637.312 287.357 629.688 299.842 624.095 309.001ZM879.719 305.2L881.039 490.917C881.039 490.917 935.576 509.614 935.576 388.076C935.576 364.38 931.435 345.52 925.408 330.603C916.877 310.165 907.771 294.3 898.871 285.728C893.504 280.56 881.827 272.405 874.341 280.559C870.017 285.27 870.366 288.268 870.649 290.699L870.657 290.771C871.43 297.409 875.723 301.416 878.34 303.858C878.889 304.371 879.365 304.815 879.719 305.2ZM890.388 258.745C922.94 270.192 938.436 300.641 943.367 311.724C976.876 387.035 958.948 509.615 893.504 515.848C891.798 516.01 889.718 516.309 887.388 516.643L887.357 516.647L887.353 516.648C875.366 518.368 856.784 521.036 848.317 511.173C843.5 505.563 841.213 495.097 845.2 490.917C848.345 487.619 857.667 489.359 857.667 489.359L859.224 307.049C859.224 307.049 848.535 297.397 846.759 282.117C846.748 282.027 846.736 281.932 846.723 281.833C846.715 281.773 846.706 281.711 846.697 281.648C846.671 281.462 846.64 281.262 846.607 281.049C846.577 280.854 846.544 280.649 846.51 280.434C845.77 275.784 844.276 266.403 849.875 260.304C860.843 248.356 886.699 257.448 890.388 258.745ZM1040.42 392.024C1034.1 391.832 1027.59 381.253 1027.97 374.897C1029.52 348.429 1033.7 332.684 1041.98 332.86C1050 333.029 1052.88 351.542 1054.44 373.34C1054.99 381.083 1047.01 392.223 1040.42 392.024ZM1138.72 467.605C1134.75 463.711 1130.18 462.887 1125.92 462.119C1123.72 461.721 1121.6 461.338 1119.68 460.552C1110.67 456.851 1087.9 426.226 1080.39 395.009C1078.66 387.794 1076.1 372.211 1073.66 357.346L1073.66 357.342L1073.66 357.339L1073.66 357.332L1073.66 357.323C1071.84 346.268 1070.09 335.613 1068.8 329.097C1068.54 327.816 1068.28 326.688 1068.02 325.697C1065.63 313.412 1062.66 300.792 1058.75 287.903C1062.41 283.029 1064.08 277.029 1063 271.36C1061.03 261.035 1050.37 253.791 1039.64 254.233C1029.43 254.655 1019.36 262.045 1017.85 272.917C1017.02 278.816 1018.88 284.731 1022.59 289.372C1019.27 302.136 1015.72 316.509 1011.95 331.738L1011.95 331.761L1011.94 331.789L1011.94 331.804C998.603 385.753 982.614 450.438 965.187 492.477C953.049 521.753 915.711 542.664 906.028 543.749C903.971 543.979 901.826 543.765 899.598 543.542C895.292 543.112 890.675 542.651 885.788 545.305C877.82 549.635 877.067 554.956 878.003 560.875C879.604 570.991 887.345 579.559 898.244 578.001C914.351 575.7 955.848 552.999 976.371 525.368C990.965 505.72 1001.53 474.679 1004.61 462.087C1007.01 452.301 1015.24 422.667 1021.41 402.785C1023.89 405.663 1025.97 408.275 1027.81 410.578L1027.81 410.582L1027.81 410.587L1027.81 410.59L1027.82 410.592C1032.84 416.897 1036.01 420.877 1040.42 421.607C1043.79 422.162 1045.77 419.907 1049.72 415.408C1051.98 412.844 1054.87 409.551 1059.02 405.635C1060.36 411.908 1062.04 418.027 1064.13 423.567C1076.28 455.769 1102.91 488.991 1117.76 495.625C1127.82 500.115 1137.61 494.001 1141.93 484.713C1144.45 479.279 1145.19 473.955 1138.72 467.605ZM827.384 417.676L827.419 417.846C827.442 417.958 827.465 418.07 827.489 418.184C836.95 448.19 818.386 491.116 816.808 494.764L816.752 494.894C808.227 514.705 793.848 525.297 779.777 535.392C728 572.532 669.708 568.598 651.245 567.084C636.515 565.877 602.092 561.54 601.945 554.76C601.858 550.73 614.29 550.36 632.982 549.803C653.528 549.191 681.638 548.354 709 542.184C734.208 536.498 758.772 519.833 776.212 500.234C780.279 494.229 784.051 489.55 787.485 485.291L787.487 485.289L788.733 483.741C792.333 478.069 795.271 472.341 797.384 466.724C801.14 456.74 804.165 436.285 801.532 416.277C801.119 414.894 800.812 413.95 800.719 413.75C795.264 402.062 792.779 398.31 782.017 385.697C775.076 377.563 770.559 373.307 766.526 369.506C762.5 365.714 758.956 362.374 753.963 356.085C744.208 343.801 739.332 337.658 735.261 328.033C730.807 317.5 724.047 301.513 730.585 284.394C736.516 268.868 751.413 257.58 767.989 254.783C770.221 254.406 794.692 250.661 811.628 268.809C829.771 288.249 826.76 320.757 819.421 323.357C814.619 325.058 805.973 313.25 805.395 312.448C802.236 308.069 801.319 304.852 800.433 301.74C799.585 298.766 798.765 295.889 796.043 292.186L796.042 292.186C794.783 290.473 786.832 279.665 774.224 279.719C773.268 279.722 761.863 279.926 757.08 287.512C750.169 298.472 753.963 314.006 766.432 329.592C773.607 338.561 780.131 343.838 786.597 349.068C792.746 354.041 798.842 358.972 805.395 366.996C820.532 385.532 823.047 397.337 826.355 412.868C826.633 414.173 826.916 415.504 827.213 416.868C827.274 417.144 827.329 417.41 827.384 417.676ZM563.333 257.356C550.581 248.331 525.915 260.165 524.755 274.892C524.309 280.536 527.317 286.744 532.305 291.288V432.393C532.305 436.678 532.356 440.867 532.405 444.927V444.934C532.779 475.741 533.061 499.031 510.385 499.031C487.71 499.031 487.992 475.741 488.365 444.934V444.925C488.415 440.866 488.465 436.677 488.465 432.393V288.888C491.92 285.532 494.264 281.49 494.603 277.197C495.372 267.444 485.867 255.971 473.559 254.4C465.217 253.336 455.695 256.835 450.763 264.921C444.439 275.285 448.119 289.14 456.023 294.733C458.796 296.696 462.132 297.669 465.668 297.844V449.929H465.705C465.681 450.495 465.668 451.077 465.668 451.683C465.668 488.487 484.72 518.321 510.385 518.321C536.051 518.321 555.103 488.487 555.103 451.683C555.103 451.077 555.089 450.495 555.065 449.929H555.103V297.027C560.467 295.588 565.459 292.308 568.595 287.167C574.917 276.804 571.239 262.949 563.333 257.356ZM1221.99 254.214C1224.03 254.372 1238.92 255.662 1242.51 265.405C1245.21 272.722 1240.5 280.406 1232.66 285.981C1233.25 321.524 1230.19 369.901 1214.67 424.466L1214.67 424.473L1214.67 424.474C1199.39 478.215 1172.93 571.238 1116.07 579.409C1089.37 583.248 1055.78 566.471 1038.6 544.195C1031.35 534.788 1023.63 519.964 1026.28 517.784C1027.59 516.702 1031.27 519.722 1036.42 523.94L1036.42 523.941C1040.05 526.915 1044.4 530.484 1049.17 533.631C1049.17 533.631 1075.13 550.773 1110.79 549.477C1134.65 548.611 1163.17 503.849 1183.95 430.121L1110.93 293.9C1107.57 293.136 1104.33 291.57 1101.69 288.72C1096.84 283.481 1094.78 274.727 1097.96 268.203C1103.62 256.597 1122.77 258.403 1127.8 258.877C1135.8 259.632 1147.04 263.313 1148.32 271.933C1149.12 277.332 1145.81 282.909 1140.5 287.041L1195.57 381.638C1200.98 354.81 1205.36 325.396 1208.33 293.861C1201.85 293.758 1195.57 291.684 1192.15 285.922C1186.9 277.073 1190.89 268.208 1197.75 261.674C1206.81 253.045 1218.73 253.962 1221.99 254.214ZM856.469 639.757C857.903 639.511 866.261 639.111 866.011 643.513C865.764 647.818 864.776 652.414 863.835 656.791C862.138 664.681 860.594 671.86 863.824 675.347C865.94 677.631 871.344 676.076 874.1 673.599C877.632 670.424 877.623 665.294 877.612 659.194C877.603 654.463 877.594 649.149 879.235 643.712C880.603 639.179 884.357 637.488 887.295 638.873C891.437 640.827 891.843 650.712 890.503 657.497C890.067 659.705 889.447 661.58 888.901 663.231C887.843 666.43 887.062 668.794 888.425 671.131C889.436 672.861 891.049 673.593 893.464 674.688C897.213 676.388 900.31 676.571 902.678 676.71C904.893 676.841 906.47 676.934 907.344 678.197C908.909 680.459 907.645 685.628 904.527 687.533C901.697 689.263 898.506 687.588 894.87 685.68C890.977 683.637 886.574 681.327 881.557 682.639C878.247 683.505 876.498 685.471 874.739 687.447C872.84 689.581 870.93 691.727 867.032 692.517C859.812 693.981 856.757 691.359 853.152 687.555C848.68 682.835 850.739 640.745 856.469 639.757ZM952.543 651.217C952.577 653.783 951.719 658.655 948.181 659.94C944.695 661.205 940.004 658.479 939.459 655.579C939.188 654.138 940.018 653.07 940.863 651.983C941.701 650.905 942.554 649.808 942.367 648.309C941.96 645.053 936.888 641.884 932.191 642.496C926.976 643.173 922.827 648.432 923.468 652.671C923.967 655.967 927.246 657.891 930.736 659.939L930.737 659.94C933.528 661.577 935.315 662.031 937.178 662.504C938.673 662.883 940.217 663.275 942.367 664.301C945.265 665.684 952.904 669.329 953.996 675.931C954.844 681.056 951.328 685.447 949.635 687.56C948.539 688.929 944.712 693.344 938.005 694.829C936.271 695.212 930.609 696.379 924.923 693.375C919.5 690.511 914.476 684.079 916.2 680.292C916.933 678.68 918.867 677.597 920.561 677.384C922.336 677.16 925.086 678.319 927.884 679.498C930.498 680.599 933.154 681.718 935.097 681.745C937.833 681.783 939.343 680.315 939.459 678.837C939.559 677.585 939.037 676.66 935.097 674.476C932.502 673.037 929.921 672.055 927.479 671.127L927.471 671.124L927.47 671.124C923.717 669.697 920.294 668.396 917.653 665.755C912.847 660.948 913.243 653.509 913.292 652.671C913.828 643.576 921.748 634.205 932.191 633.773C943.328 633.311 952.436 643.219 952.543 651.217ZM982.337 614.992C986.649 616.871 992.385 621.709 991.128 626.121C990.308 629.003 986.796 630.684 984.157 631.025C981.061 631.424 978.761 630.031 976.052 628.389L976.05 628.388C973.38 626.771 970.722 625.162 969.743 621.928C969.592 621.429 968.512 617.681 970.523 615.287C973.217 612.08 979.431 613.724 982.337 614.992ZM988.885 652.671C988.313 648.067 984.595 644.973 981.616 642.496C978.335 639.765 974.883 636.893 971.441 638.135C967.749 639.465 965.623 644.964 967.08 648.309C967.86 650.103 969.449 650.771 970.964 651.408C972.418 652.019 973.805 652.603 974.348 654.125C974.992 655.933 973.883 657.488 972.213 659.829C971.115 661.367 969.776 663.244 968.533 665.755L968.533 665.756C967.019 668.812 963.542 675.834 965.625 683.199C967.884 691.177 975.261 694.589 975.801 694.829L975.809 694.833C977.235 695.463 984.351 698.606 988.885 694.829C990.751 693.275 992.553 690.236 991.792 687.56C991.245 685.638 989.653 684.88 987.883 684.037C986.189 683.231 984.331 682.347 983.071 680.292C981.094 677.07 981.989 673.263 983.07 668.666L983.071 668.663C984.127 664.166 985.669 661.524 986.909 659.399C988.242 657.114 989.227 655.426 988.885 652.671ZM1042.67 652.671C1043.65 646.891 1037.93 640.761 1032.5 638.135C1026.96 635.456 1020.24 635.688 1015.05 638.135C1001.87 644.352 996.828 665.749 1003.42 680.292C1004.9 683.549 1008.3 689.42 1015.05 693.375C1024.34 698.818 1033.65 696.932 1036.85 696.283L1036.86 696.283C1041.28 695.385 1045.77 694.476 1048.49 690.468C1051.63 685.828 1050.27 680.201 1049.94 678.837L1049.94 678.829C1049.43 676.723 1048.34 672.23 1045.58 671.569C1044.02 671.196 1042.85 672.267 1041.15 673.829C1039.51 675.328 1037.39 677.279 1033.95 678.837C1031.26 680.059 1027.33 681.837 1023.77 680.292C1019.18 678.297 1018.23 671.931 1017.96 670.147L1017.96 670.116C1017.33 665.889 1017.02 662.635 1017.96 659.94C1018.2 659.243 1018.41 658.518 1018.61 657.795C1019.54 654.469 1020.45 651.217 1025.23 651.217C1029.41 651.217 1029.42 651.226 1032.13 653.777L1032.5 654.125C1032.66 654.281 1032.88 654.624 1033.16 655.053C1034.14 656.577 1035.82 659.198 1038.31 658.485C1040.79 657.777 1042.29 654.901 1042.67 652.671ZM1079.01 683.199C1083.26 684.204 1089.75 674.539 1092.1 665.755C1093.96 658.815 1094.34 648.269 1090.64 646.856C1086.38 645.227 1076.21 655.552 1074.65 667.208C1073.79 673.699 1075.37 682.336 1079.01 683.199ZM1113.9 680.292C1116.45 680.651 1117.97 682.765 1118.27 683.199C1120.07 685.855 1119.7 689.585 1118.27 691.921C1115.15 696.987 1105.7 697.621 1099.37 694.829C1097.41 693.967 1096.4 693.063 1095.54 692.295C1094.58 691.432 1093.8 690.74 1092.1 690.468C1088.96 689.966 1086.72 691.536 1084.38 693.176C1082.38 694.573 1080.32 696.021 1077.56 696.283C1070.23 696.978 1063.92 688.727 1063.03 687.563L1063.02 687.56C1051.99 673.116 1057.76 643.545 1074.65 635.227C1082.93 631.153 1091.18 633.497 1092.1 633.773C1101.27 636.524 1109.57 645.391 1109.54 654.125C1109.53 658.162 1107.75 661.176 1105.93 664.243C1103.75 667.927 1101.52 671.687 1102.27 677.384C1102.41 678.409 1102.95 682.476 1105.18 683.199C1106.37 683.584 1107.49 682.843 1108.76 682.006C1110.19 681.062 1111.8 679.996 1113.9 680.292ZM1121.92 613.683C1125.57 609.549 1132.37 609.972 1136.66 612.045C1140.97 614.131 1142.9 617.957 1143.21 618.596C1145.41 623.137 1144.98 626.343 1144.01 633.57C1143.77 635.393 1143.49 637.47 1143.21 639.889C1142.9 642.582 1142.64 644.541 1142.43 646.152C1141.8 650.896 1141.57 652.624 1141.57 661.183C1141.57 661.843 1141.54 662.529 1141.52 663.232C1141.39 666.222 1141.26 669.535 1143.21 672.649C1144.7 675.024 1146.91 676.664 1148.12 677.563C1150.47 679.302 1152.25 680.008 1153.57 680.533C1154.92 681.068 1155.8 681.414 1156.31 682.476C1157.84 685.617 1154.62 691.745 1149.76 693.943C1143.24 696.888 1136.29 691.627 1135.02 690.668L1135.02 690.667C1128.89 686.025 1127.46 679.009 1126.83 675.924C1125.43 669.065 1126.71 663.544 1128.47 656.269C1129.3 652.82 1130.03 650.173 1130.62 648.011C1132.38 641.6 1132.97 639.463 1131.74 633.337C1131.08 630.031 1126.31 627.403 1125.32 626.859C1125.27 626.828 1125.22 626.804 1125.19 626.787C1124.83 626.581 1124.5 626.399 1124.18 626.235C1124.02 626.149 1123.86 626.067 1123.71 625.99C1123.51 625.888 1123.32 625.793 1123.14 625.703C1121.76 625.006 1120.94 624.594 1120.28 623.511C1118.6 620.756 1119.58 616.329 1121.92 613.683ZM1186.59 645.403C1178.44 645.07 1171.09 656.617 1173.51 661.393C1175.04 664.417 1180.28 664.316 1180.77 664.301C1188.58 664.056 1195.82 655.012 1193.86 649.764C1192.83 647.013 1189.35 645.515 1186.59 645.403ZM1202.58 674.476C1205.53 674.501 1209.03 676.213 1209.85 678.837C1210.92 682.276 1207.02 686.069 1205.49 687.56C1199.57 693.313 1187.46 698.48 1176.41 693.375C1165.71 688.428 1162.87 677.008 1161.88 673.023C1161.64 672.063 1158 656.368 1167.69 643.949C1169.64 641.449 1173.1 637.144 1179.32 635.227C1181.03 634.699 1188.05 632.779 1195.31 636.68C1196.3 637.209 1203.43 641.193 1205.49 649.764C1206.02 651.968 1207.65 658.761 1204.03 662.846C1202.06 665.081 1200.38 665.688 1197.52 666.722C1195.56 667.431 1193.04 668.341 1189.5 670.116C1189.18 670.275 1188.86 670.426 1188.56 670.573C1188.35 670.673 1188.14 670.771 1187.94 670.867C1184.98 672.264 1182.8 673.293 1183.68 675.93C1184.95 679.746 1187.34 679.11 1191.81 677.918L1192.31 677.785L1192.67 677.689C1193.05 677.589 1193.45 677.486 1193.86 677.384C1195.62 676.945 1196.79 676.343 1197.84 675.801C1199.25 675.076 1200.45 674.458 1202.58 674.476ZM836.177 670.409C837.721 660.336 837.333 654.148 836.487 640.664C836.13 634.975 835.692 627.986 835.283 618.859C834.951 611.453 832.74 606.7 832.74 606.7C832.74 606.7 777.811 610.019 736.032 613.888C729.281 614.513 721.223 614.552 721.223 614.552C721.223 614.552 721.871 650.427 718.837 669.537C714.639 670.067 710.268 671.332 706.62 673.167C699.084 676.956 689.139 685.917 691.227 694.376C692.493 699.507 697.591 702.037 698.207 702.332C707.425 706.74 718.324 698.439 721.096 696.327C728.143 690.96 737.448 679.745 734.045 673.543C733.748 673 733.335 672.531 732.872 672.097C733.013 669.306 732.297 665.454 731.485 661.092C729.625 651.093 727.266 638.415 733.601 629.693C742.52 617.415 766.848 615.496 774.164 624.165C780.181 631.297 776.164 647.345 773.17 659.31L773.169 659.312C772.541 661.821 771.884 664.058 771.304 666.035L771.295 666.063C771.183 666.447 771.073 666.821 770.967 667.185C766.679 667.691 762.188 668.967 758.455 670.844C750.919 674.633 740.973 683.595 743.061 692.053C744.328 697.184 749.425 699.715 750.041 700.008C759.259 704.417 770.155 696.119 772.931 694.005L772.932 694.004C779.872 688.719 788.976 677.771 786 671.515C787.316 662.922 787.343 655.591 787.371 648.26C787.399 640.91 787.426 633.56 788.752 624.939C789.78 618.255 802.113 618.759 808.536 620.627C810.007 621.056 815.739 622.917 819.147 628.143C825.761 638.285 822.858 648.397 819.912 658.659L819.912 658.661C819.153 661.305 818.391 663.959 817.788 666.627C814.581 667.292 811.399 668.345 808.632 669.737C801.097 673.527 791.152 682.488 793.239 690.947C794.505 696.077 799.603 698.608 800.219 698.901C809.436 703.31 820.333 695.012 823.108 692.898L823.109 692.897C830.049 687.611 839.152 676.665 836.177 670.409Z" fill="white"/>
</g>
<defs>
<clipPath id="clip0_1_52">
<rect width="1333" height="780" fill="white"/>
</clipPath>
</defs>
</svg>
