<svg xmlns="http://www.w3.org/2000/svg" version="1.1" xmlns:xlink="http://www.w3.org/1999/xlink" xmlns:svgjs="http://svgjs.com/svgjs" width="1000" height="1000"><rect width="1000" height="1000" rx="200" ry="200" fill="#ffffff"></rect><g transform="matrix(26.666666666666668,0,0,26.666666666666668,240.84759712219238,96.94566162427265)"><svg xmlns="http://www.w3.org/2000/svg" version="1.1" xmlns:xlink="http://www.w3.org/1999/xlink" xmlns:svgjs="http://svgjs.com/svgjs" width="19" height="30"><svg width="19" height="30" viewBox="0 0 19 30" fill="none" xmlns="http://www.w3.org/2000/svg">
<path d="M10.1467 29.714C8.60673 29.714 7.09473 29.504 5.61073 29.084C4.12673 28.664 2.90873 28.062 1.95673 27.278C1.03273 26.494 0.570734 25.598 0.570734 24.59V20.096H1.32673C1.80273 22.896 2.72673 24.926 4.09873 26.186C5.47073 27.418 7.36073 28.034 9.76873 28.034C11.2807 28.034 12.5687 27.656 13.6327 26.9C14.7247 26.144 15.2707 25.094 15.2707 23.75C15.2707 22.574 14.9067 21.552 14.1787 20.684C13.4507 19.816 12.2747 18.906 10.6507 17.954L5.48473 14.888C3.69273 13.824 2.41873 12.746 1.66273 11.654C0.934734 10.562 0.570734 9.232 0.570734 7.664C0.570734 5.508 1.31273 3.786 2.79673 2.498C4.30873 1.182 6.28273 0.523999 8.71873 0.523999C10.1467 0.523999 11.5607 0.733998 12.9607 1.154C14.3607 1.546 15.5087 2.134 16.4047 2.918C17.3287 3.674 17.7907 4.556 17.7907 5.564V10.058H17.0347C16.5587 7.258 15.6487 5.256 14.3047 4.052C12.9887 2.82 11.1267 2.204 8.71873 2.204C7.43073 2.204 6.29673 2.596 5.31673 3.38C4.33673 4.164 3.84673 5.186 3.84673 6.446C3.84673 7.594 4.19673 8.546 4.89673 9.302C5.62473 10.058 6.82873 10.94 8.50874 11.948L13.6747 15.014C15.5787 16.162 16.9227 17.226 17.7067 18.206C18.4907 19.186 18.8827 20.432 18.8827 21.944C18.8827 24.296 18.0987 26.186 16.5307 27.614C14.9627 29.014 12.8347 29.714 10.1467 29.714Z" fill="black"></path>
</svg></svg></g></svg>