<svg width="275" height="70" viewBox="0 0 275 70" fill="none" xmlns="http://www.w3.org/2000/svg">
<path fill-rule="evenodd" clip-rule="evenodd" d="M21.9036 0.378517C22.2518 0.636228 22.3945 1.08886 22.257 1.4997L19.5604 9.55757L26.3907 14.6122C26.7389 14.8699 26.8816 15.3225 26.7441 15.7334C26.6066 16.1442 26.2202 16.4198 25.787 16.416L17.3673 16.3421L14.62 28.3057C14.5151 28.7622 14.1075 29.0848 13.6392 29.0819C13.1708 29.079 12.7672 28.7515 12.668 28.2937L10.0641 16.278L1.6401 16.204C1.20689 16.2002 0.825395 15.9179 0.695143 15.5047C0.56489 15.0915 0.715504 14.6415 1.06821 14.3899L7.98609 9.45598L5.43138 1.35201C5.30112 0.938824 5.45174 0.488761 5.80445 0.237203C6.15716 -0.0143546 6.63173 -0.0101889 6.97997 0.247522L13.8102 5.30215L20.7281 0.368199C21.0808 0.116641 21.5553 0.120806 21.9036 0.378517ZM274.887 20.728C274.887 21.2803 274.44 21.728 273.887 21.728H267.527V51C267.527 51.5523 267.08 52 266.527 52H260.703C260.151 52 259.703 51.5523 259.703 51V21.728H256.159C255.607 21.728 255.159 21.2803 255.159 20.728V15.928C255.159 15.3757 255.607 14.928 256.159 14.928H259.703V13.432C259.703 9.35502 260.745 6.16561 263.045 4.11035C265.362 2.0355 268.924 1.10401 273.503 1.10401C274.056 1.10401 274.503 1.55172 274.503 2.10401V6.96801C274.503 7.52029 274.056 7.96801 273.503 7.96801C271.027 7.96801 269.54 8.47254 268.756 9.2254C268.022 9.92882 267.527 11.2368 267.527 13.432V14.928H273.887C274.44 14.928 274.887 15.3757 274.887 15.928V20.728ZM249.689 2.64C250.242 2.64 250.689 3.08772 250.689 3.64V51C250.689 51.5523 250.242 52 249.689 52H243.865C243.313 52 242.865 51.5523 242.865 51V3.64C242.865 3.08772 243.313 2.64 243.865 2.64H249.689ZM197.44 33.336C197.44 29.6157 198.193 26.3116 199.735 23.4547C201.266 20.5735 203.374 18.3235 206.057 16.7319L206.064 16.7282C208.784 15.1411 211.797 14.352 215.08 14.352C218.298 14.352 221.145 15.0461 223.584 16.4728C224.959 17.2767 226.145 18.2081 227.136 19.2689V15.928C227.136 15.3757 227.583 14.928 228.136 14.928H234.024C234.576 14.928 235.024 15.3757 235.024 15.928V51C235.024 51.5523 234.576 52 234.024 52H228.136C227.583 52 227.136 51.5523 227.136 51V47.5269C226.111 48.6348 224.884 49.6093 223.461 50.4523L223.456 50.4552C221.019 51.8806 218.194 52.576 215.016 52.576C211.728 52.576 208.73 51.7628 206.047 50.1256C203.365 48.4893 201.259 46.1953 199.729 43.2715C198.195 40.3372 197.44 37.0173 197.44 33.336ZM205.392 33.336C205.392 35.8882 205.897 38.0665 206.872 39.902C207.857 41.7138 209.161 43.0889 210.783 44.0562C212.414 44.9861 214.223 45.456 216.232 45.456C218.242 45.456 220.052 44.9854 221.684 44.0538C223.349 43.0849 224.672 41.7097 225.655 39.902C226.631 38.0643 227.136 35.9066 227.136 33.4C227.136 30.8907 226.63 28.7568 225.657 26.9655C224.675 25.1581 223.355 23.8071 221.696 22.8812C221.688 22.8767 221.68 22.872 221.672 22.8673C220.042 21.8968 218.236 21.408 216.232 21.408C214.22 21.408 212.408 21.8793 210.776 22.8122C209.158 23.7365 207.856 25.0881 206.87 26.9015C205.897 28.6928 205.392 30.8267 205.392 33.336ZM156.485 23.4547C154.943 26.3116 154.19 29.6157 154.19 33.336C154.19 37.0173 154.945 40.3373 156.479 43.2715C158.009 46.1953 160.115 48.4893 162.797 50.1257L162.803 50.1295C165.525 51.7629 168.542 52.576 171.83 52.576C175.008 52.576 177.833 51.8807 180.27 50.4553L180.282 50.4481C181.674 49.608 182.877 48.6315 183.886 47.5174V51C183.886 51.5523 184.333 52 184.886 52H190.774C191.326 52 191.774 51.5523 191.774 51V3.64C191.774 3.08772 191.326 2.64 190.774 2.64H184.886C184.333 2.64 183.886 3.08772 183.886 3.64V19.2749C182.794 18.1473 181.49 17.1865 179.982 16.3908C177.487 15.0311 174.785 14.352 171.894 14.352C168.571 14.352 165.537 15.1398 162.814 16.7282L162.807 16.7319C160.124 18.3235 158.016 20.5735 156.485 23.4547ZM163.622 39.902C162.647 38.0665 162.142 35.8882 162.142 33.336C162.142 30.8267 162.647 28.6928 163.62 26.9015C164.606 25.0881 165.908 23.7365 167.526 22.8122C169.158 21.8793 170.97 21.408 172.982 21.408C174.986 21.408 176.792 21.8968 178.422 22.8673C178.43 22.872 178.438 22.8767 178.446 22.8812C180.105 23.8071 181.425 25.1581 182.407 26.9655C183.38 28.7568 183.886 30.8907 183.886 33.4C183.886 35.9066 183.381 38.0643 182.405 39.902C181.422 41.7097 180.099 43.0849 178.434 44.0538C176.802 44.9854 174.992 45.456 172.982 45.456C170.973 45.456 169.164 44.9862 167.533 44.0562C165.911 43.0889 164.607 41.7138 163.622 39.902ZM133.516 14.288C138.001 14.288 141.722 15.6637 144.582 18.4761C147.477 21.2793 148.852 25.2854 148.852 30.328V51C148.852 51.5523 148.404 52 147.852 52H142.092C141.54 52 141.092 51.5523 141.092 51V31.16C141.092 27.8194 140.258 25.4377 138.744 23.8501L138.736 23.8417C137.21 22.2041 135.106 21.344 132.3 21.344C129.457 21.344 127.283 22.2222 125.667 23.9105C124.109 25.5827 123.252 28.0938 123.252 31.608V51C123.252 51.5523 122.804 52 122.252 52H116.428C115.876 52 115.428 51.5523 115.428 51V15.928C115.428 15.3757 115.876 14.928 116.428 14.928H122.252C122.804 14.928 123.252 15.3757 123.252 15.928V18.1295C124.185 17.2283 125.261 16.4733 126.477 15.8656L126.484 15.8617C128.636 14.8088 130.985 14.288 133.516 14.288ZM72.2963 23.4561C70.7554 26.3127 70.002 29.6163 70.002 33.336C70.002 37.0173 70.7571 40.3372 72.2919 43.2715C73.8213 46.1953 75.9273 48.4893 78.6091 50.1256C81.2923 51.7628 84.2903 52.576 87.578 52.576C90.7567 52.576 93.5818 51.8806 96.0189 50.4552L96.0238 50.4523C97.4464 49.6093 98.674 48.6348 99.698 47.5269V51C99.698 51.5523 100.146 52 100.698 52H106.586C107.138 52 107.586 51.5523 107.586 51V15.928C107.586 15.3757 107.138 14.928 106.586 14.928H100.698C100.146 14.928 99.698 15.3757 99.698 15.928V19.2689C98.708 18.2081 97.5214 17.2767 96.1469 16.4728C93.7077 15.0461 90.8605 14.352 87.642 14.352C84.3597 14.352 81.347 15.1411 78.6261 16.7282L78.6198 16.7319C75.9365 18.3238 73.8279 20.5742 72.2963 23.4561ZM79.4349 39.9026C78.4594 38.067 77.954 35.8885 77.954 33.336C77.954 30.8267 78.4591 28.6928 79.4326 26.9015C80.4182 25.0881 81.7207 23.7365 83.3381 22.8122C84.9707 21.8793 86.7822 21.408 88.794 21.408C90.7981 21.408 92.6041 21.8968 94.2345 22.8673C94.2383 22.8696 94.2422 22.8718 94.246 22.874C94.2502 22.8765 94.2544 22.8788 94.2586 22.8812C95.9175 23.8071 97.2371 25.1581 98.2194 26.9655C99.1929 28.7568 99.698 30.8907 99.698 33.4C99.698 35.9069 99.1938 38.0648 98.2172 39.9026C97.2341 41.7099 95.9116 43.0848 94.2467 44.0536C92.6149 44.9853 90.8045 45.456 88.794 45.456C86.7854 45.456 84.9765 44.9862 83.3459 44.0562C81.7241 43.089 80.4202 41.7141 79.4349 39.9026ZM44.392 14.352C47.5691 14.352 50.393 15.0467 52.8292 16.4707C54.2341 17.2775 55.4436 18.2135 56.448 19.2812V15.928C56.448 15.3757 56.8957 14.928 57.448 14.928H63.336C63.8883 14.928 64.336 15.3757 64.336 15.928V51.768C64.336 55.1127 63.6215 58.119 62.1656 60.7594C60.7075 63.4467 58.6066 65.545 55.8844 67.0428C53.1953 68.546 50.079 69.28 46.568 69.28C41.8 69.28 37.7457 68.1523 34.47 65.832C31.1732 63.4968 29.2129 60.2884 28.6187 56.2661C28.5763 55.9785 28.661 55.6867 28.851 55.4666C29.0409 55.2465 29.3173 55.12 29.608 55.12H35.368C35.8096 55.12 36.1989 55.4097 36.3258 55.8326C36.8921 57.7201 38.0558 59.2365 39.874 60.3971L39.8866 60.4052C41.702 61.6026 43.9133 62.224 46.568 62.224C49.5399 62.224 51.8758 61.302 53.6689 59.5089L53.6763 59.5014C55.4844 57.7311 56.448 55.2011 56.448 51.768V47.475C55.4391 48.5752 54.2355 49.5444 52.8449 50.3841C50.4058 51.8567 47.5763 52.576 44.392 52.576C41.1043 52.576 38.0878 51.7629 35.3655 50.1295L35.3591 50.1257C32.6773 48.4893 30.5713 46.1953 29.0419 43.2715C27.5071 40.3372 26.752 37.0173 26.752 33.336C26.752 29.6163 27.5054 26.3127 29.0463 23.4561C30.5779 20.5742 32.6865 18.3238 35.3698 16.7319L35.3761 16.7282C38.097 15.1411 41.1097 14.352 44.392 14.352ZM34.704 33.336C34.704 35.8884 35.2093 38.0668 36.1848 39.9024C37.1701 41.714 38.4741 43.089 40.0959 44.0562C41.7265 44.9862 43.5354 45.456 45.544 45.456C47.5544 45.456 49.3648 44.9853 50.9965 44.0537C52.6616 43.0848 53.9841 41.7098 54.9672 39.9024C55.9438 38.0647 56.448 35.9068 56.448 33.4C56.448 30.8907 55.9429 28.7568 54.9694 26.9655C53.9871 25.1581 52.6675 23.8071 51.0086 22.8812C51.0005 22.8767 50.9925 22.872 50.9845 22.8673C49.3541 21.8968 47.5481 21.408 45.544 21.408C43.5322 21.408 41.7207 21.8793 40.0881 22.8122C38.4707 23.7365 37.1682 25.0881 36.1826 26.9015C35.2091 28.6928 34.704 30.8267 34.704 33.336Z" fill="#1A1A1A"/>
</svg>
