<svg width="372" height="90" viewBox="0 0 372 90" fill="none" xmlns="http://www.w3.org/2000/svg">
<path d="M0.680001 69V24.84H3.656V69H0.680001ZM32.168 69V41.16C32.168 36.808 30.888 33.288 28.328 30.6C25.768 27.912 22.472 26.568 18.44 26.568C15.752 26.568 13.288 27.176 11.048 28.392C8.808 29.608 7.016 31.304 5.672 33.48C4.328 35.592 3.656 38.088 3.656 40.968L1.64 40.872C1.64 37.48 2.376 34.504 3.848 31.944C5.384 29.384 7.432 27.4 9.992 25.992C12.616 24.584 15.528 23.88 18.728 23.88C21.864 23.88 24.648 24.584 27.08 25.992C29.576 27.4 31.528 29.384 32.936 31.944C34.408 34.504 35.144 37.512 35.144 40.968V69H32.168ZM63.656 69V41.16C63.656 36.808 62.376 33.288 59.816 30.6C57.256 27.912 53.96 26.568 49.928 26.568C47.24 26.568 44.776 27.176 42.536 28.392C40.296 29.608 38.504 31.304 37.16 33.48C35.816 35.592 35.144 38.088 35.144 40.968L33.128 40.872C33.128 37.416 33.896 34.44 35.432 31.944C36.968 29.384 39.016 27.4 41.576 25.992C44.2 24.584 47.08 23.88 50.216 23.88C53.352 23.88 56.136 24.584 58.568 25.992C61.064 27.4 63.016 29.416 64.424 32.04C65.896 34.6 66.632 37.608 66.632 41.064V69H63.656ZM81.0238 69V24.84H83.9998V69H81.0238ZM82.4638 13.8C81.6318 13.8 80.9278 13.48 80.3518 12.84C79.7758 12.2 79.4878 11.464 79.4878 10.632C79.4878 9.736 79.7758 9 80.3518 8.424C80.9278 7.848 81.6318 7.56 82.4638 7.56C83.3598 7.56 84.0958 7.848 84.6718 8.424C85.3118 9 85.6318 9.736 85.6318 10.632C85.6318 11.464 85.3118 12.2 84.6718 12.84C84.0958 13.48 83.3598 13.8 82.4638 13.8ZM119.365 69.96C115.013 69.96 111.109 68.968 107.653 66.984C104.261 64.936 101.573 62.184 99.5885 58.728C97.6045 55.272 96.6125 51.368 96.6125 47.016C96.6125 42.664 97.6045 38.76 99.5885 35.304C101.573 31.784 104.261 29 107.653 26.952C111.045 24.904 114.885 23.88 119.173 23.88C122.565 23.88 125.605 24.52 128.293 25.8C131.045 27.016 133.317 28.776 135.109 31.08C136.965 33.384 138.245 36.136 138.949 39.336V54.408C138.181 57.608 136.869 60.392 135.013 62.76C133.221 65.064 130.981 66.856 128.293 68.136C125.669 69.352 122.693 69.96 119.365 69.96ZM119.749 67.176C125.253 67.176 129.637 65.352 132.901 61.704C136.165 57.992 137.797 53.096 137.797 47.016C137.797 42.92 137.029 39.368 135.493 36.36C134.021 33.288 131.909 30.92 129.157 29.256C126.405 27.528 123.205 26.664 119.557 26.664C115.717 26.664 112.293 27.56 109.285 29.352C106.341 31.08 104.005 33.48 102.277 36.552C100.549 39.56 99.6845 43.016 99.6845 46.92C99.6845 50.824 100.549 54.312 102.277 57.384C104.005 60.392 106.373 62.792 109.381 64.584C112.453 66.312 115.909 67.176 119.749 67.176ZM137.701 69V57.192L138.565 46.248L137.701 35.592V24.84H140.677V69H137.701ZM195.717 89.064C191.045 89.064 186.885 88.2 183.237 86.472C179.653 84.744 176.773 82.312 174.597 79.176L180.165 73.512C182.021 75.88 184.229 77.672 186.789 78.888C189.349 80.168 192.389 80.808 195.909 80.808C200.581 80.808 204.261 79.56 206.949 77.064C209.701 74.632 211.077 71.336 211.077 67.176V55.848L212.613 45.576L211.077 35.4V23.4H219.717V67.176C219.717 71.528 218.693 75.336 216.645 78.6C214.661 81.864 211.845 84.424 208.197 86.28C204.613 88.136 200.453 89.064 195.717 89.064ZM195.717 68.232C191.557 68.232 187.813 67.24 184.485 65.256C181.221 63.272 178.629 60.552 176.709 57.096C174.789 53.576 173.829 49.64 173.829 45.288C173.829 40.936 174.789 37.064 176.709 33.672C178.629 30.216 181.221 27.496 184.485 25.512C187.813 23.464 191.557 22.44 195.717 22.44C199.301 22.44 202.469 23.144 205.221 24.552C207.973 25.96 210.149 27.944 211.749 30.504C213.413 33 214.309 35.944 214.437 39.336V51.432C214.245 54.76 213.317 57.704 211.653 60.264C210.053 62.76 207.877 64.712 205.125 66.12C202.373 67.528 199.237 68.232 195.717 68.232ZM197.445 60.072C200.261 60.072 202.725 59.464 204.837 58.248C207.013 57.032 208.677 55.336 209.829 53.16C210.981 50.92 211.557 48.328 211.557 45.384C211.557 42.44 210.949 39.88 209.733 37.704C208.581 35.464 206.949 33.736 204.837 32.52C202.725 31.24 200.229 30.6 197.349 30.6C194.469 30.6 191.941 31.24 189.765 32.52C187.589 33.736 185.861 35.464 184.581 37.704C183.365 39.88 182.757 42.408 182.757 45.288C182.757 48.168 183.365 50.728 184.581 52.968C185.861 55.208 187.589 56.968 189.765 58.248C192.005 59.464 194.565 60.072 197.445 60.072ZM232.398 69V0.455996H241.039V69H232.398ZM274.512 69.96C270.032 69.96 266 68.904 262.416 66.792C258.832 64.68 255.984 61.832 253.872 58.248C251.76 54.6 250.704 50.536 250.704 46.056C250.704 41.64 251.76 37.672 253.872 34.152C255.984 30.568 258.832 27.72 262.416 25.608C266 23.496 270.032 22.44 274.512 22.44C278.928 22.44 282.928 23.496 286.512 25.608C290.16 27.656 293.04 30.472 295.152 34.056C297.264 37.64 298.32 41.64 298.32 46.056C298.32 50.536 297.264 54.6 295.152 58.248C293.04 61.832 290.16 64.68 286.512 66.792C282.928 68.904 278.928 69.96 274.512 69.96ZM274.512 61.608C277.392 61.608 279.952 60.936 282.192 59.592C284.432 58.248 286.192 56.424 287.472 54.12C288.752 51.752 289.392 49.064 289.392 46.056C289.392 43.112 288.72 40.488 287.376 38.184C286.096 35.88 284.336 34.088 282.096 32.808C279.92 31.464 277.392 30.792 274.512 30.792C271.632 30.792 269.072 31.464 266.832 32.808C264.592 34.088 262.832 35.88 261.552 38.184C260.272 40.488 259.632 43.112 259.632 46.056C259.632 49.064 260.272 51.752 261.552 54.12C262.832 56.424 264.592 58.248 266.832 59.592C269.072 60.936 271.632 61.608 274.512 61.608ZM319.798 69L301.75 23.4H310.774L323.83 58.92H320.95L333.91 23.4H338.902L351.862 58.92H348.982L362.038 23.4H371.062L353.11 69H348.022L334.87 34.536H338.038L324.79 69H319.798Z" fill="#DAB692"/>
</svg>
